<?xml version="1.0" standalone="no"?>
<!DOCTYPE svg PUBLIC "-//W3C//DTD SVG 20010904//EN"
 "http://www.w3.org/TR/2001/REC-SVG-20010904/DTD/svg10.dtd">
<svg version="1.0" xmlns="http://www.w3.org/2000/svg"
 width="1024.000000pt" height="1024.000000pt" viewBox="0 0 1024.000000 1024.000000"
 preserveAspectRatio="xMidYMid meet">
<metadata>
Created by potrace 1.11, written by Peter Selinger 2001-2013
</metadata>
<g transform="translate(0.000000,1024.000000) scale(0.100000,-0.100000)"
fill="#000000" stroke="none">
<path d="M1279 10236 c-2 -2 -31 -6 -64 -9 -117 -12 -390 -95 -436 -134 -8 -7
-20 -13 -25 -13 -17 0 -157 -91 -224 -145 -266 -216 -425 -475 -502 -816 l-23
-104 0 -3880 c0 -2134 3 -3900 7 -3925 67 -419 288 -766 628 -985 143 -93 366
-182 500 -201 14 -2 54 -8 90 -13 41 -6 1510 -9 3930 -8 l3865 2 95 22 c234
54 417 141 612 294 55 42 180 176 238 254 78 105 172 294 210 425 63 217 59
-85 59 4115 0 2336 -4 3865 -10 3904 -23 160 -58 277 -125 418 -134 284 -352
508 -631 651 -81 42 -254 105 -323 118 -173 32 -147 32 -4031 33 -2110 1
-3838 -1 -3840 -3z"/>
</g>
</svg>
